<svg width="35" height="39" viewBox="0 0 35 39" fill="none" xmlns="http://www.w3.org/2000/svg">
<path d="M8.94524 29.8218C8.32107 29.5763 7.70338 29.2818 7.09212 28.9385C6.76663 28.7409 6.4365 28.5265 6.10174 28.2953C5.5818 27.9362 5.39653 27.2619 5.62784 26.6738V26.6738C5.91299 25.9489 6.72996 25.6023 7.4809 25.8094C8.82437 26.18 10.1171 26.2897 11.3592 26.1385C13.0304 25.9466 14.5036 25.3421 15.7788 24.3251C17.0539 23.3081 18.029 21.9416 18.7041 20.2253C19.3792 18.509 19.5964 16.8443 19.3559 15.2311C19.1153 13.6179 18.4599 12.1762 17.3896 10.9059C16.5809 9.94604 15.5497 9.14113 14.296 8.4911C13.6032 8.13188 13.2407 7.31999 13.5263 6.59373V6.59373C13.7573 6.0066 14.3506 5.63768 14.9742 5.73338C16.1149 5.90844 17.1563 6.18125 18.0985 6.55186C19.8147 7.22693 21.2877 8.12805 22.5173 9.25518C23.7468 10.3823 24.6906 11.68 25.3484 13.1485C26.015 14.5946 26.3575 16.145 26.3759 17.7994C26.403 19.4316 26.0747 21.117 25.3909 22.8555C24.4966 25.129 23.2016 26.949 21.506 28.3152C19.8191 29.6593 17.8868 30.4821 15.7092 30.7837C13.5402 31.0631 11.2856 30.7424 8.94524 29.8218ZM13.3828 27.7148C12.8157 27.8682 12.7089 28.8644 13.2964 28.8695V28.8695C14.8441 28.8606 16.2813 28.5765 17.608 28.0174C18.9347 27.4582 20.091 26.6777 21.0772 25.6757C22.072 24.6515 22.8412 23.4484 23.3848 22.0664C23.9372 20.6622 24.1937 19.2575 24.1546 17.8522C24.1241 16.4247 23.8094 15.0655 23.2104 13.7746C22.6202 12.4614 21.7573 11.2855 20.6216 10.2468V10.2468C20.2185 9.86733 19.6279 10.6459 19.9154 11.1189C19.958 11.189 19.9998 11.2597 20.0407 11.331C20.9118 12.7803 21.4057 14.3387 21.522 16.0059C21.6383 17.6732 21.3677 19.3427 20.7101 21.0144C20.0613 22.6638 19.122 24.0702 17.8923 25.2337C16.6712 26.3749 15.248 27.1792 13.6229 27.6467C13.5431 27.6704 13.4631 27.6931 13.3828 27.7148Z" fill="url(#paint0_linear_77_142)"/>
<defs>
<linearGradient id="paint0_linear_77_142" x1="6" y1="19" x2="26.5" y2="19" gradientUnits="userSpaceOnUse">
<stop stop-color="#EF4444"/>
<stop offset="1" stop-color="#3B82F6"/>
</linearGradient>
</defs>
</svg>
