<svg width="35" height="39" viewBox="0 0 35 39" fill="none" xmlns="http://www.w3.org/2000/svg">
<path d="M13.7153 30.808C13.1179 30.808 12.5099 30.7653 11.8913 30.68C11.2726 30.5733 10.6219 30.424 9.93925 30.232V28.024C11.6886 28.024 13.2139 27.672 14.5153 26.968C15.8379 26.264 16.8619 25.2827 17.5873 24.024C18.3126 22.7653 18.6753 21.3147 18.6753 19.672C18.6753 18.0293 18.3126 16.5787 17.5873 15.32C16.8619 14.0613 15.8486 13.08 14.5473 12.376C13.2459 11.672 11.7099 11.32 9.93925 11.32V9.112C11.2833 8.728 12.5419 8.536 13.7153 8.536C15.3579 8.536 16.8726 8.80267 18.2593 9.336C19.6459 9.86933 20.8513 10.6373 21.8753 11.64C22.8993 12.6213 23.6886 13.7947 24.2433 15.16C24.7979 16.504 25.0753 18.008 25.0753 19.672C25.0753 21.848 24.5953 23.7787 23.6353 25.464C22.6753 27.128 21.3419 28.44 19.6353 29.4C17.9286 30.3387 15.9553 30.808 13.7153 30.808ZM12.7233 29.336C14.3019 29.336 15.7313 29.0907 17.0113 28.6C18.2913 28.088 19.3899 27.384 20.3073 26.488C21.2246 25.592 21.9286 24.568 22.4193 23.416C22.9099 22.2427 23.1553 20.9947 23.1553 19.672C23.1553 18.328 22.9099 17.08 22.4193 15.928C21.9286 14.7547 21.2246 13.7307 20.3073 12.856C19.3899 11.96 18.2913 11.2667 17.0113 10.776C15.7313 10.264 14.3019 10.008 12.7233 10.008C14.3233 10.3067 15.7099 10.9253 16.8833 11.864C18.0779 12.7813 18.9953 13.912 19.6353 15.256C20.2753 16.6 20.5953 18.072 20.5953 19.672C20.5953 21.2507 20.2753 22.7227 19.6353 24.088C18.9953 25.432 18.0779 26.5627 16.8833 27.48C15.7099 28.3973 14.3233 29.016 12.7233 29.336Z" fill="url(#paint0_linear_68_146)"/>
<defs>
<linearGradient id="paint0_linear_68_146" x1="8" y1="20.3125" x2="27" y2="20.3125" gradientUnits="userSpaceOnUse">
<stop stop-color="#EF4444"/>
<stop offset="1" stop-color="#3B82F6"/>
</linearGradient>
</defs>
</svg>
