<svg width="35" height="39" viewBox="0 0 35 39" fill="none" xmlns="http://www.w3.org/2000/svg">
<path d="M17.0909 24.5C16.1515 24.5 15.2917 24.2689 14.5114 23.8068C13.7311 23.3447 13.1098 22.7235 12.6477 21.9432C12.1856 21.1629 11.9545 20.303 11.9545 19.3636C11.9545 18.4167 12.1856 17.5568 12.6477 16.7841C13.1098 16.0038 13.7311 15.3826 14.5114 14.9205C15.2917 14.4583 16.1515 14.2273 17.0909 14.2273C18.0379 14.2273 18.8977 14.4583 19.6705 14.9205C20.4508 15.3826 21.072 16.0038 21.5341 16.7841C21.9962 17.5568 22.2273 18.4167 22.2273 19.3636C22.2273 20.303 21.9962 21.1629 21.5341 21.9432C21.072 22.7235 20.4508 23.3447 19.6705 23.8068C18.8977 24.2689 18.0379 24.5 17.0909 24.5ZM17.0909 22.2273C17.6212 22.2273 18.1023 22.0985 18.5341 21.8409C18.9659 21.5833 19.3106 21.2386 19.5682 20.8068C19.8258 20.3674 19.9545 19.8864 19.9545 19.3636C19.9545 18.8333 19.8258 18.3523 19.5682 17.9205C19.3106 17.4886 18.9659 17.1439 18.5341 16.8864C18.1023 16.6288 17.6212 16.5 17.0909 16.5C16.5682 16.5 16.0871 16.6288 15.6477 16.8864C15.2159 17.1439 14.8712 17.4886 14.6136 17.9205C14.3561 18.3523 14.2273 18.8333 14.2273 19.3636C14.2273 19.8864 14.3561 20.3674 14.6136 20.8068C14.8712 21.2386 15.2159 21.5833 15.6477 21.8409C16.0871 22.0985 16.5682 22.2273 17.0909 22.2273ZM16 11.9545V5.04545H18.1818V11.9545H16ZM23.0909 14.9091L21.5455 13.3636L26.4545 8.45454L28 10L23.0909 14.9091ZM24.5 20.4545V18.2727H31.4091V20.4545H24.5ZM26.4545 30.2727L21.5455 25.3636L23.0909 23.8182L28 28.7273L26.4545 30.2727ZM16 33.6818V26.7727H18.1818V33.6818H16ZM7.72727 30.2727L6.18182 28.7273L11.0909 23.8182L12.6364 25.3636L7.72727 30.2727ZM2.77273 20.4545V18.2727H9.68182V20.4545H2.77273ZM11.0909 14.9091L6.18182 10L7.72727 8.45454L12.6364 13.3636L11.0909 14.9091Z" fill="url(#paint0_linear_68_145)"/>
<defs>
<linearGradient id="paint0_linear_68_145" x1="2.5" y1="19.5" x2="31" y2="19.5" gradientUnits="userSpaceOnUse">
<stop stop-color="#EF4444"/>
<stop offset="1" stop-color="#3B82F6"/>
</linearGradient>
</defs>
</svg>
