<svg width="35" height="39" viewBox="0 0 35 39" fill="none" xmlns="http://www.w3.org/2000/svg">
<path d="M17.3182 11.909C16.7157 11.909 16.2273 11.4206 16.2273 10.8181V6.0909C16.2273 5.48841 16.7157 5 17.3182 5V5C17.9207 5 18.4091 5.48841 18.4091 6.0909V10.8182C18.4091 11.4206 17.9207 11.909 17.3182 11.909V11.909ZM24.0909 14.0909C23.6641 14.5177 22.9722 14.5177 22.5454 14.0909V14.0909C22.1187 13.6641 22.1187 12.9722 22.5455 12.5454L25.909 9.18183C26.3358 8.75506 27.0277 8.75505 27.4545 9.18181V9.18181C27.8813 9.60858 27.8813 10.3005 27.4545 10.7273L24.0909 14.0909ZM25.8182 20.409C25.2157 20.409 24.7273 19.9206 24.7273 19.3181V19.3181C24.7273 18.7157 25.2157 18.2272 25.8182 18.2272H30.5455C31.148 18.2272 31.6364 18.7157 31.6364 19.3181V19.3181C31.6364 19.9206 31.148 20.409 30.5455 20.409H25.8182ZM27.4545 29.4546C27.0277 29.8813 26.3358 29.8813 25.9091 29.4545L22.5455 26.0909C22.1187 25.6641 22.1187 24.9722 22.5455 24.5455V24.5455C22.9722 24.1187 23.6641 24.1187 24.0909 24.5455L27.4545 27.9091C27.8813 28.3359 27.8813 29.0278 27.4545 29.4546V29.4546ZM17.3182 33.6364C16.7157 33.6364 16.2273 33.1479 16.2273 32.5455V27.8181C16.2273 27.2157 16.7157 26.7272 17.3182 26.7272V26.7272C17.9207 26.7272 18.4091 27.2157 18.4091 27.8181V32.5455C18.4091 33.1479 17.9207 33.6364 17.3182 33.6364V33.6364ZM8.72724 29.4546C8.30049 29.8813 7.60859 29.8813 7.18183 29.4546V29.4546C6.75506 29.0278 6.75505 28.3359 7.18181 27.9091L10.5455 24.5455C10.9722 24.1187 11.6641 24.1187 12.0909 24.5454V24.5454C12.5177 24.9722 12.5177 25.6641 12.0909 26.0909L8.72724 29.4546ZM4.0909 20.409C3.48841 20.409 3 19.9206 3 19.3181V19.3181C3 18.7157 3.48841 18.2272 4.0909 18.2272H8.81819C9.42068 18.2272 9.90909 18.7157 9.90909 19.3181V19.3181C9.90909 19.9206 9.42068 20.409 8.81819 20.409H4.0909ZM12.0909 14.0909C11.6641 14.5177 10.9722 14.5177 10.5454 14.0909L7.18181 10.7273C6.75505 10.3005 6.75505 9.60859 7.18181 9.18182V9.18182C7.60858 8.75505 8.3005 8.75505 8.72727 9.18181L12.0909 12.5454C12.5177 12.9722 12.5177 13.6641 12.0909 14.0909V14.0909Z" fill="url(#paint0_linear_78_144)"/>
<circle cx="17.5" cy="19.5" r="7.5" stroke="url(#paint1_linear_78_144)" stroke-width="2"/>
<defs>
<linearGradient id="paint0_linear_78_144" x1="4.63637" y1="19.4546" x2="33.1364" y2="19.4546" gradientUnits="userSpaceOnUse">
<stop stop-color="#EF4444"/>
<stop offset="1" stop-color="#3B82F6"/>
</linearGradient>
<linearGradient id="paint1_linear_78_144" x1="2.625" y1="20.0312" x2="32.9062" y2="20.0312" gradientUnits="userSpaceOnUse">
<stop stop-color="#EF4444"/>
<stop offset="1" stop-color="#3B82F6"/>
</linearGradient>
</defs>
</svg>
