<svg width="52" height="52" viewBox="0 0 52 52" fill="none" xmlns="http://www.w3.org/2000/svg">
<path d="M32.1722 26.0011L51.4857 6.68883C52.1714 6.00302 52.1714 4.89322 51.4857 4.20764L47.7946 0.515192C47.4659 0.186676 47.0198 0.00170898 46.5542 0.00170898C46.0884 0.00170898 45.6423 0.186676 45.3136 0.515192L26.0001 19.8289L6.68656 0.515192C6.35782 0.186676 5.91171 0.00170898 5.44597 0.00170898C4.98033 0.00170898 4.53411 0.186676 4.20548 0.515192L0.514388 4.20764C-0.171422 4.89322 -0.171422 6.00302 0.514388 6.68883L19.8279 26.0012L0.516306 45.3112C-0.169165 45.997 -0.169165 47.1068 0.516306 47.7924L4.20763 51.4848C4.53614 51.8134 4.98236 51.9983 5.44811 51.9983C5.91386 51.9983 6.35997 51.8134 6.68882 51.4848L25.9999 32.1734L45.3112 51.4848C45.6399 51.8134 46.086 51.9983 46.5518 51.9983C47.0176 51.9983 47.4638 51.8134 47.7923 51.4848L51.4836 47.7924C52.1691 47.1068 52.1691 45.997 51.4836 45.3112L32.1722 26.0011Z" fill="url(#paint0_linear_101_135)"/>
<defs>
<linearGradient id="paint0_linear_101_135" x1="1.0217e-06" y1="-5.17301e-07" x2="52" y2="52" gradientUnits="userSpaceOnUse">
<stop stop-color="#3B82F6"/>
<stop offset="1" stop-color="#EF4444"/>
</linearGradient>
</defs>
</svg>
