<?xml version="1.0" encoding="UTF-8" standalone="no"?>
<!-- Generator: Adobe Illustrator 24.1.2, SVG Export Plug-In . SVG Version: 6.00 Build 0)  -->

<svg
   xmlns:dc="http://purl.org/dc/elements/1.1/"
   xmlns:cc="http://creativecommons.org/ns#"
   xmlns:rdf="http://www.w3.org/1999/02/22-rdf-syntax-ns#"
   xmlns:svg="http://www.w3.org/2000/svg"
   xmlns="http://www.w3.org/2000/svg"
   xmlns:sodipodi="http://sodipodi.sourceforge.net/DTD/sodipodi-0.dtd"
   xmlns:inkscape="http://www.inkscape.org/namespaces/inkscape"
   version="1.1"
   x="0px"
   y="0px"
   viewBox="0 0 1000 1546.7866"
   xml:space="preserve"
   id="svg24"
   sodipodi:docname="logo-header.svg"
   width="1000"
   height="1546.7866"
   inkscape:version="0.92.4 (5da689c313, 2019-01-14)"><metadata
   id="metadata30"><rdf:RDF><cc:Work
       rdf:about=""><dc:format>image/svg+xml</dc:format><dc:type
         rdf:resource="http://purl.org/dc/dcmitype/StillImage" /><dc:title></dc:title></cc:Work></rdf:RDF></metadata><defs
   id="defs28" /><sodipodi:namedview
   pagecolor="#ffffff"
   bordercolor="#111111"
   borderopacity="1"
   objecttolerance="10"
   gridtolerance="10"
   guidetolerance="10"
   inkscape:pageopacity="0"
   inkscape:pageshadow="2"
   inkscape:window-width="1920"
   inkscape:window-height="1017"
   id="namedview26"
   showgrid="false"
   fit-margin-top="0"
   fit-margin-left="0"
   fit-margin-right="0"
   fit-margin-bottom="0"
   inkscape:zoom="0.18153846"
   inkscape:cx="375"
   inkscape:cy="580.04996"
   inkscape:window-x="1912"
   inkscape:window-y="-8"
   inkscape:window-maximized="1"
   inkscape:current-layer="svg24" />
<g
   id="BG"
   transform="translate(-74.999998,316.73667)">
</g>
<g
   id="Brunswick_Black_Right_Angle"
   transform="matrix(1.3333333,0,0,1.3333333,-99.999998,-93.279998)">
	<g
   id="g21">
		<path
   d="m 195.09,1099.63 c -6.26,-20.23 -25.97,-37.74 -56.27,-37.74 -36.53,0 -63.82,25.47 -63.82,76.1 v 92.06 h 257.83 v -93.91 c 0,-45.77 -24.67,-82.95 -74.9,-82.95 -39.33,0 -57.43,28.58 -62.84,46.44 z m -97.24,105.09 v -66.77 c 0,-32.79 18.67,-49.52 42.91,-49.52 27.73,0 43.46,15.54 43.46,56.02 v 60.28 H 97.85 Z m 212.13,-67.16 v 67.16 H 207.07 v -58.53 c 0,-47.13 20.81,-66.36 51.43,-66.36 35.32,0 51.48,25.19 51.48,57.73 z"
   id="path3"
   inkscape:connector-curvature="0" />
		<path
   d="m 186.92,983.02 c -21.21,0 -34.33,0.42 -39.95,0.84 v 23.76 c 7.75,-0.06 21.69,-0.36 50.53,-0.36 h 135.33 v -24.24 h -93.72 c -45.49,0 -69.12,-24.81 -71.05,-62.44 h -25.51 c 1.23,29.77 17.74,52.35 44.37,62.44 z"
   id="path5"
   inkscape:connector-curvature="0" />
		<path
   d="m 146.97,747.84 v 24.24 h 96.16 c 50.09,0 71.47,14.21 71.47,51.66 0,33.38 -24.62,41.36 -50.52,41.36 H 146.97 v 23.94 h 122.67 c 54.85,0 67.62,-31.67 67.62,-59.92 0,-30.69 -13.41,-48.8 -34.73,-57.04 13.6,-0.06 25.44,-0.42 30.3,-1.14 v -23.46 c -8.85,0.06 -36.07,0.36 -54.22,0.36 z"
   id="path7"
   inkscape:connector-curvature="0" />
		<path
   d="m 142.54,612.45 c 0,36.46 19.97,51.35 37.56,59.02 -5.35,-0.25 -27.4,0.17 -33.14,0.95 v 23.65 c 14.66,-0.36 30.59,-0.36 46.84,-0.36 h 139.02 v -24.24 h -96.44 c -39.07,0 -71.25,-14.43 -71.25,-53.66 0,-29.91 20.36,-42.14 51.15,-42.14 H 332.82 V 551.43 H 212.81 c -50.44,0 -70.27,27.83 -70.27,61.02 z"
   id="path9"
   inkscape:connector-curvature="0" />
		<path
   d="m 223.23,438.25 c -8.57,34.84 -16.35,43 -31.98,43 -13.65,0 -28.05,-8.41 -28.05,-37.28 0,-29.59 18.14,-40.2 32.11,-43.17 v -23.78 c -26.16,2.66 -52.77,22.14 -52.77,65.93 0,43.73 24.76,62.66 50.72,62.66 24.85,0 40.14,-11.29 52.31,-60.58 9.38,-38.03 18.71,-46.6 38.17,-46.6 19.02,0 32.68,11.92 32.68,41.75 0,26.9 -13.33,42.73 -35.75,48.48 v 24.37 c 33.36,-4.89 56.59,-28.11 56.59,-72.2 0,-41.47 -22.17,-67.67 -55.42,-67.67 -27.76,0.01 -45.64,11.98 -58.61,65.09 z"
   id="path11"
   inkscape:connector-curvature="0" />
		<path
   d="m 354.01,155.83 c -31.2,109.83 -39.06,137.72 -43.89,157.91 h -0.36 C 306.62,298.21 297.18,266.28 265.8,155.83 h -24.76 c -27.24,93.32 -43.01,146.22 -46.08,162.18 h -0.42 C 191.53,300.4 177.13,247.75 152.16,155.83 h -25.67 l 53.19,185.86 h 27.92 c 22.24,-76.52 40.95,-138.49 44.46,-157.66 h 0.36 c 3.73,18.47 24.58,90.98 43.37,157.66 h 26.4 l 56.88,-185.86 z"
   id="path13"
   inkscape:connector-curvature="0" />
		<rect
   x="415.67999"
   y="155.83"
   width="24.24"
   height="185.86"
   id="rect15" />
		<path
   d="m 635.53,286.03 h -24.37 c -8.54,25.27 -23.3,38.41 -48.15,38.41 -35.21,0 -54.37,-32.38 -54.37,-75.74 0,-44.51 20.2,-75.56 55.89,-75.56 28.84,0 41.66,18.59 46.68,38.95 h 24.31 C 632.67,187.01 614.09,151.4 565,151.4 c -53.88,0 -81.63,46.55 -81.63,98.21 0,60.91 31.8,96.51 79.4,96.51 43.32,0 64.48,-27.7 72.76,-60.09 z"
   id="path17"
   inkscape:connector-curvature="0" />
		<path
   d="m 675.85,69.96 v 271.73 h 24.24 v -68.26 l 28.93,-28.48 66.93,96.75 H 825 L 745.99,229.11 816.47,155.85 H 786.7 c -24.53,26.05 -70.49,74.35 -86.61,92.63 V 69.96 Z"
   id="path19"
   inkscape:connector-curvature="0" />
	</g>
</g>
</svg>