<svg xmlns="http://www.w3.org/2000/svg" xmlns:xlink="http://www.w3.org/1999/xlink" width="175.504" height="15.038" viewBox="0 0 175.504 15.038">
  <defs>
    <clipPath id="clip-path">
      <path id="Path_19" data-name="Path 19" d="M0-29.568H16.994v-15H0Z" transform="translate(0 44.568)"/>
    </clipPath>
  </defs>
  <g id="Group_30" data-name="Group 30" transform="translate(-630.991 -17.038)">
    <g id="Group_5" data-name="Group 5" transform="translate(669.757 31.733)">
      <path id="Path_5" data-name="Path 5" d="M0,0-3.649-5.524A4.271,4.271,0,0,0-.544-9.8a4.45,4.45,0,0,0-4.718-4.516h-6.773V0h2.822V-5.3h2.641L-3.145,0ZM-9.213-11.975h3.447c1.512,0,2.44.787,2.44,2.178,0,1.371-.928,2.157-2.44,2.157H-9.213Zm26.227-2.338H14.192v5.6H7.8v-5.6H4.979V0H7.8V-6.33h6.391V0h2.822Zm8.93,0H23.122V0h2.822Zm15.442,0v5.2c0,2.177.04,3.891.1,5.161-.464-.827-1.129-1.935-1.976-3.286l-.544-.907-3.85-6.169H32.052V0h2.742V-4.939q0-3.054-.121-5.564.726,1.3,2.419,4.052l.4.645L41.124,0h3V-14.313ZM63.46-7.156c.061-4.234-2.782-7.56-7.056-7.5-4.314-.06-7.116,3.266-7.075,7.5C49.288-2.923,52.09.4,56.4.343c4.274.06,7.117-3.266,7.056-7.5m-11.229,0c0-3.024,1.654-5,4.173-5,2.5,0,4.153,1.976,4.153,5s-1.653,5-4.153,5c-2.519,0-4.173-1.976-4.173-5m27.054-5.262a9.813,9.813,0,0,0-2.7-1.714,8.069,8.069,0,0,0-3.024-.5c-3.246,0-5.463,1.874-5.463,4.273,0,2.278,1.109,3.326,4.939,4.254l.685.161c1.512.323,2.137.5,2.6.968a1.185,1.185,0,0,1,.342.887c0,1.229-1.128,1.975-2.8,1.975a5.5,5.5,0,0,1-2.3-.463,10.949,10.949,0,0,1-2.419-1.714l-1.693,2A11.144,11.144,0,0,0,70.476-.242,8.83,8.83,0,0,0,73.8.343c3.467,0,5.665-1.936,5.665-4.657-.081-2.459-1.432-3.266-5.1-4.173q-1.45-.333-2.116-.544a2.73,2.73,0,0,1-1.029-.545,1.169,1.169,0,0,1-.342-.866c0-1.029,1.028-1.754,2.62-1.754a5.249,5.249,0,0,1,2.037.363,8.82,8.82,0,0,1,2.1,1.391ZM95.05-14.313H83.6v2.419h4.314V0h2.822V-11.894H95.05Zm8,0h-2.822V0h2.822Zm17.86,1.794a7.326,7.326,0,0,0-5.342-2.137c-4.475-.06-7.217,3.246-7.177,7.459-.04,4.274,2.8,7.6,7.157,7.54a7.524,7.524,0,0,0,5.584-2.4l-1.653-1.915a11.726,11.726,0,0,1-2.056,1.431,4.4,4.4,0,0,1-1.915.4c-2.561,0-4.234-2.016-4.234-5.04s1.673-5,4.274-5a5.227,5.227,0,0,1,3.709,1.613Zm15.643.1a9.812,9.812,0,0,0-2.7-1.714,8.069,8.069,0,0,0-3.024-.5c-3.245,0-5.463,1.874-5.463,4.273,0,2.278,1.109,3.326,4.939,4.254l.686.161c1.511.323,2.136.5,2.6.968a1.182,1.182,0,0,1,.343.887c0,1.229-1.129,1.975-2.8,1.975a5.5,5.5,0,0,1-2.3-.463,10.928,10.928,0,0,1-2.42-1.714l-1.693,2a11.159,11.159,0,0,0,3.024,2.056,8.83,8.83,0,0,0,3.326.585c3.468,0,5.665-1.936,5.665-4.657-.081-2.459-1.431-3.266-5.1-4.173q-1.452-.333-2.117-.544a2.725,2.725,0,0,1-1.028-.545,1.166,1.166,0,0,1-.343-.866c0-1.029,1.028-1.754,2.621-1.754a5.247,5.247,0,0,1,2.036.363,8.82,8.82,0,0,1,2.1,1.391Z"/>
    </g>
    <g id="Group_29" data-name="Group 29" transform="translate(630.991 61.606)">
      <g id="Group_28" data-name="Group 28" transform="translate(0 -44.568)" clip-path="url(#clip-path)">
        <g id="Group_27" data-name="Group 27" transform="translate(0 0)">
          <path id="Path_18" data-name="Path 18" d="M-33.5-28.881V-42.523a.657.657,0,0,0-.394-.6,7.123,7.123,0,0,0-2.929-.407,6.478,6.478,0,0,0-4.328,1.615c-.482-.349-3.443-2.058-3.623-1.171a3.753,3.753,0,0,0,.408,2.585c.335.51,1.262,1.046.935,1.694-.03.06-.34.767-.364.765l-1.439-.168a.549.549,0,0,0-.549.549l.181,1.587-.549.549a7.127,7.127,0,0,1-2-1.213,9.992,9.992,0,0,1-1.389-2.084.564.564,0,0,0-.484-.166.549.549,0,0,0-.464.542l.37,2.455a2.757,2.757,0,0,0,.578,1.685l3.18,4.095q.048.062.1.122a2.744,2.744,0,0,0,3.872.258l2.385-2.087a5.064,5.064,0,0,1,2.922,3.39h3.239a.348.348,0,0,0,.348-.348M-41.044-36.1a.925.925,0,0,1-.926.926A.926.926,0,0,1-42.9-36.1a.926.926,0,0,1,.926-.926.925.925,0,0,1,.926.926" transform="translate(50.492 43.533)"/>
        </g>
      </g>
    </g>
  </g>
</svg>
