<svg width="189" height="97" viewBox="0 0 189 97" fill="none" xmlns="http://www.w3.org/2000/svg">
<path d="M0 0H189V97H0V0Z" fill="#1FB291"/>
<path d="M107.749 12.34C109.575 16.4762 110.499 20.9538 110.46 25.475C110.5 29.9962 109.575 34.474 107.749 38.61C113.999 35.761 118.088 30.942 118.088 25.478C118.088 20.014 113.989 15.189 107.749 12.34Z" fill="white"/>
<path d="M81.48 12.34C75.23 15.189 71.141 20.008 71.141 25.475C71.141 30.942 75.241 35.758 81.48 38.607C79.6524 34.4724 78.7281 29.9954 78.769 25.475C78.7282 20.9537 79.6525 16.4757 81.48 12.34Z" fill="white"/>
<path d="M81.481 38.608C84.327 44.858 89.146 48.947 94.613 48.947C100.08 48.947 104.9 44.847 107.749 38.608C103.601 40.3963 99.1319 41.3188 94.615 41.3188C90.0981 41.3188 85.6288 40.3963 81.481 38.608Z" fill="white"/>
<path d="M107.749 12.339C104.9 6.1 100.081 2 94.613 2C89.145 2 84.327 6.1 81.481 12.339C85.6288 10.5507 90.0981 9.62821 94.615 9.62821C99.1319 9.62821 103.601 10.5507 107.749 12.339Z" fill="white"/>
<path d="M2 94.662L9.678 84.944L2.234 75.502H5.948L11.679 82.923H12.228L17.906 75.523H21.669L14.169 84.948L21.85 94.662H18.12L12.228 87.02H11.678L5.8 94.662H2Z" fill="white"/>
<path d="M34.285 95.211C32.5088 95.2504 30.7532 94.8239 29.193 93.974C27.7464 93.1702 26.5621 91.9665 25.782 90.507C24.9471 88.9135 24.5294 87.1345 24.568 85.336V84.866C24.5271 83.0544 24.9447 81.2619 25.782 79.655C26.5553 78.2036 27.7241 77.0012 29.153 76.187C30.6455 75.3906 32.3087 74.9675 34.0003 74.9537C35.6919 74.94 37.3617 75.336 38.867 76.108C40.253 76.8737 41.3877 78.0244 42.134 79.421C42.9457 80.9792 43.3496 82.7176 43.308 84.474V85.887H27.66C27.6343 86.7682 27.7911 87.6453 28.1203 88.4631C28.4495 89.281 28.9442 90.022 29.5732 90.6397C30.2023 91.2574 30.9522 91.7384 31.7759 92.0527C32.5996 92.367 33.4794 92.5077 34.36 92.466C35.7222 92.5553 37.0711 92.1514 38.16 91.328C39.032 90.5916 39.7278 89.6689 40.196 88.628L42.861 89.921C42.4251 90.7963 41.879 91.6123 41.236 92.349C40.485 93.2055 39.566 93.8985 38.536 94.385C37.2012 94.983 35.7466 95.2657 34.285 95.211ZM27.706 83.339H40.16C40.1531 82.5599 39.9883 81.7903 39.6757 81.0767C39.3631 80.3631 38.909 79.7202 38.341 79.187C37.1638 78.1689 35.6431 77.6372 34.088 77.7C32.5154 77.6359 30.9765 78.1668 29.778 79.187C28.6084 80.277 27.8713 81.7523 27.702 83.342L27.706 83.339Z" fill="white"/>
<path d="M48.713 94.661V75.503H51.73V78.753H52.279C52.7665 77.7552 53.5016 76.899 54.414 76.266C55.7416 75.4336 57.2988 75.0433 58.862 75.151C60.2029 75.1279 61.5287 75.4371 62.721 76.051C63.8649 76.658 64.8096 77.5819 65.442 78.712C66.1612 80.0457 66.5132 81.5466 66.462 83.061V94.661H63.362V83.299C63.4313 82.5446 63.3396 81.784 63.0929 81.0677C62.8462 80.3515 62.4502 79.6957 61.931 79.144C60.8553 78.239 59.4758 77.7768 58.072 77.851C57.2342 77.8186 56.3989 77.9621 55.6199 78.2721C54.8409 78.5821 54.1355 79.0518 53.549 79.651C52.2871 81.1432 51.6612 83.0711 51.806 85.02V94.659L48.713 94.661Z" fill="white"/>
<path d="M81.574 95.212C79.7943 95.2476 78.0348 94.8287 76.462 93.995C75.0069 93.2078 73.8097 92.0175 73.014 90.567C72.1588 88.9591 71.7338 87.1575 71.78 85.337V84.827C71.7391 83.0131 72.164 81.219 73.014 79.616C73.806 78.1576 75.0036 76.9599 76.462 76.168C78.0485 75.37 79.7997 74.9543 81.5755 74.9543C83.3514 74.9543 85.1026 75.37 86.689 76.168C88.1466 76.961 89.344 78.1584 90.137 79.616C90.987 81.219 91.4119 83.0131 91.371 84.827V85.337C91.4173 87.1575 90.9922 88.9591 90.137 90.567C89.3403 92.0168 88.1434 93.2068 86.689 93.995C85.1152 94.829 83.3548 95.2478 81.574 95.212ZM81.574 92.429C82.4785 92.471 83.3816 92.3196 84.2229 91.9849C85.0643 91.6502 85.8245 91.1399 86.453 90.488C87.7191 89.0486 88.3729 87.1715 88.275 85.257V84.898C88.3748 82.9835 87.7207 81.1061 86.453 79.668C85.1373 78.4239 83.3953 77.7307 81.5845 77.7307C79.7738 77.7307 78.0317 78.4239 76.716 79.668C75.4342 81.0987 74.7727 82.9799 74.877 84.898V85.25C74.7774 87.1678 75.4382 89.0475 76.716 90.481C77.3428 91.1297 78.0995 91.6386 78.9368 91.9743C79.774 92.31 80.6727 92.465 81.574 92.429Z" fill="white"/>
<path d="M96.932 94.661V75.503H99.952V78.753H100.501C100.989 77.7552 101.724 76.899 102.636 76.266C103.964 75.4348 105.521 75.0445 107.084 75.151C108.425 75.1275 109.751 75.4368 110.943 76.051C112.087 76.659 113.032 77.5825 113.667 78.712C114.383 80.0467 114.734 81.547 114.684 83.061V94.661H111.584V83.299C111.653 82.5449 111.562 81.7846 111.316 81.0684C111.069 80.3522 110.674 79.6963 110.156 79.144C109.081 78.2383 107.701 77.776 106.297 77.851C105.459 77.8188 104.623 77.9623 103.843 78.2723C103.064 78.5822 102.357 79.0519 101.77 79.651C100.506 81.1421 99.8811 83.0711 100.03 85.02V94.659L96.932 94.661Z" fill="white"/>
<path d="M139.128 95.211C137.532 95.2293 135.959 94.8228 134.572 94.033C133.174 93.2328 132.032 92.0506 131.282 90.625C130.438 88.9921 130.021 87.1725 130.068 85.335V84.825C130.015 82.9883 130.433 81.1684 131.282 79.539C132.043 78.1254 133.182 76.9511 134.572 76.147C135.953 75.3513 137.521 74.9391 139.115 74.953C140.729 74.8592 142.334 75.2548 143.72 76.088C144.723 76.7461 145.556 77.6322 146.151 78.674H146.743V75.503H149.76V94.662H146.819V91.33H146.312C145.727 92.4163 144.886 93.3432 143.861 94.03C142.442 94.8997 140.789 95.312 139.128 95.211ZM139.95 92.467C140.844 92.5024 141.736 92.3518 142.569 92.0247C143.402 91.6977 144.158 91.2013 144.789 90.567C145.436 89.8497 145.934 89.011 146.253 88.0995C146.573 87.1881 146.708 86.2222 146.651 85.258V84.899C146.709 83.9347 146.574 82.9685 146.255 82.057C145.935 81.1454 145.437 80.3067 144.789 79.59C144.158 78.9555 143.402 78.459 142.569 78.1319C141.736 77.8049 140.844 77.6544 139.95 77.69C139.057 77.66 138.166 77.8131 137.334 78.1399C136.502 78.4666 135.745 78.9601 135.111 79.59C134.453 80.3013 133.945 81.1382 133.619 82.0505C133.292 82.9628 133.154 83.9317 133.211 84.899V85.251C133.153 86.2183 133.292 87.1873 133.618 88.0997C133.945 89.0121 134.453 89.849 135.111 90.56C135.746 91.1898 136.502 91.6831 137.334 92.0099C138.166 92.3366 139.057 92.4898 139.95 92.46V92.467Z" fill="white"/>
<path d="M155.68 94.662V75.504H158.697V77.853H159.246C159.536 77.0754 160.091 76.4244 160.812 76.014C161.675 75.585 162.632 75.3823 163.595 75.425H165.868V78.248H163.397C162.174 78.1912 160.976 78.6044 160.048 79.403C159.593 79.8757 159.244 80.4401 159.024 81.0585C158.805 81.677 158.72 82.3351 158.775 82.989V94.664L155.68 94.662Z" fill="white"/>
<path d="M177.903 95.21C176.162 95.2364 174.442 94.8237 172.903 94.01C171.437 93.2245 170.226 92.0347 169.416 90.582C168.534 88.9613 168.095 87.1366 168.143 85.292V84.861C168.091 83.01 168.53 81.1782 169.416 79.552C170.233 78.1093 171.442 76.9277 172.903 76.144C174.443 75.3322 176.163 74.9216 177.903 74.95C179.523 74.9032 181.13 75.2534 182.584 75.97C183.817 76.5941 184.869 77.5237 185.64 78.67C186.37 79.7602 186.858 80.9943 187.071 82.289L184.055 82.921C183.933 82.004 183.619 81.1229 183.134 80.335C182.638 79.5405 181.942 78.8912 181.114 78.453C180.133 77.9568 179.042 77.716 177.943 77.753C176.743 77.7316 175.559 78.0291 174.512 78.615C173.501 79.1973 172.673 80.0521 172.124 81.082C171.513 82.2592 171.209 83.572 171.242 84.898V85.25C171.205 86.5848 171.509 87.9069 172.124 89.092C172.674 90.1211 173.501 90.9757 174.512 91.559C175.559 92.1449 176.743 92.4423 177.943 92.421C178.734 92.4751 179.527 92.3713 180.277 92.1154C181.027 91.8596 181.719 91.457 182.312 90.931C183.317 89.94 183.97 88.6471 184.171 87.25L187.227 87.908C186.932 89.1848 186.401 90.3952 185.661 91.477C184.88 92.6218 183.822 93.5506 182.585 94.177C181.132 94.8967 179.524 95.2513 177.903 95.21Z" fill="white"/>
</svg>
